<svg id="css" xmlns="http://www.w3.org/2000/svg" width="18.579" height="26.224" viewBox="0 0 18.579 26.224">
  <path id="Path_11" data-name="Path 11" d="M9.723,91.836,2.136,89.73.445,70.766H19.024L17.331,89.727Z" transform="translate(-0.445 -65.612)" fill="#264de4"/>
  <path id="Path_12" data-name="Path 12" d="M134.148,108.26l1.446-16.2H128v17.907Z" transform="translate(-118.711 -85.353)" fill="#2965f1"/>
  <path id="Path_13" data-name="Path 13" d="M48.336,128.7l.208,2.326h5.2V128.7ZM47.917,124l.211,2.326h5.621V124Zm5.832,10.748-.01,0-2.59-.7-.166-1.855H48.648l.326,3.652,4.764,1.323.011,0Z" transform="translate(-44.46 -114.965)" fill="#ebebeb"/>
  <path id="Path_14" data-name="Path 14" d="M60.484,0H63.3V1.178H61.662V2.356H63.3V3.534H60.484Zm3.38,0h2.817V1.024H65.042v.2h1.639V3.585H63.864V2.51H65.5V2.3H63.864V0Zm3.38,0h2.817V1.024H68.423v.2h1.639V3.585H67.245V2.51h1.639V2.3H67.245V0Z" transform="translate(-56.112)"/>
  <path id="Path_15" data-name="Path 15" d="M133.3,128.7l.42-4.708h-5.826v2.326h3.277l-.212,2.382h-3.066v2.326h2.864l-.27,3.016-2.594.7v2.42l4.768-1.321.035-.393.547-6.123Z" transform="translate(-118.608 -114.965)" fill="#fff"/>
</svg>
