<svg id="html" xmlns="http://www.w3.org/2000/svg" width="16.961" height="23.941" viewBox="0 0 16.961 23.941">
  <path id="Path_6" data-name="Path 6" d="M17.406,70.766l-1.545,17.31L8.915,90,1.989,88.079.445,70.766Z" transform="translate(-0.445 -66.061)" fill="#e44d26"/>
  <path id="Path_7" data-name="Path 7" d="M128,108.406l5.613-1.556,1.32-14.793H128Z" transform="translate(-119.519 -85.936)" fill="#f16529"/>
  <path id="Path_8" data-name="Path 8" d="M50.238,126.118h3V124H47.917l.051.57.522,5.851h4.752v-2.123h-2.81Zm.479,5.359H48.585l.3,3.334,4.35,1.207.01,0v-2.209l-.009,0-2.365-.639Z" transform="translate(-44.761 -115.751)" fill="#ebebeb"/>
  <path id="Path_9" data-name="Path 9" d="M24.18,0h1.079V1.066h.987V0h1.079V3.228H26.246V2.147h-.987V3.228H24.18V0Zm4.564,1.071h-.95V0h2.98V1.071h-.95V3.228H28.745V1.071h0ZM31.247,0h1.125l.692,1.134L33.756,0h1.126V3.228H33.807v-1.6l-.742,1.148h-.019L32.3,1.628v1.6H31.247Zm4.171,0H36.5V2.161h1.517V3.228h-2.6V0Z" transform="translate(-22.602)"/>
  <path id="Path_10" data-name="Path 10" d="M127.889,130.416H130.5l-.247,2.754-2.368.639v2.209l4.353-1.206.032-.359.5-5.59.052-.57h-4.936Zm0-4.3v.005h5.129l.043-.477.1-1.076.051-.57h-5.319v2.118Z" transform="translate(-119.416 -115.751)" fill="#fff"/>
</svg>
