<svg id="javascript" xmlns="http://www.w3.org/2000/svg" width="19.135" height="26.935" viewBox="0 0 19.135 26.935">
  <path id="Path_275" data-name="Path 275" d="M19.135,489.9H0l1.794,19.452,7.773,2.2,7.773-2.2Z" transform="translate(0 -484.622)" fill="#e6a329"/>
  <path id="Path_276" data-name="Path 276" d="M887.9,637v18.424l6.3-1.784L895.73,637Z" transform="translate(-878.334 -630.137)" fill="#f1bf22"/>
  <path id="Path_277" data-name="Path 277" d="M401.957,858.5h-9.683l-.674,7.282.014-.045h8.226l-.268,3.081-2.625.755-2.663-.767-.16-1.865h-2.418l.345,3.727,4.9,1.39,4.9-1.39.674-7.315h-8.73l.112-2.437h6.057l.091,1.4h2.438Z" transform="translate(-387.381 -849.251)" fill="#fff"/>
  <path id="Path_278" data-name="Path 278" d="M396.949,858.5h-4.675l-.674,7.282.014-.045h5.335v-2.376H394.13l.112-2.437h2.707Zm-2.819,8.443h-2.423l.345,3.725,4.9,1.388v-2.478l-2.663-.769Z" transform="translate(-387.381 -849.251)" fill="#ebebeb"/>
  <path id="Path_279" data-name="Path 279" d="M558.8,2.409h-1.7V3.632h2.923V0H558.8Zm5.426-2.39h-2.97V1.291c.4.4.6.587,1.187,1.162H561.26V3.612h2.969V2.454l-1.186-1.162h1.187Z" transform="translate(-551.098)" fill="#231f20"/>
</svg>
