<svg id="java" xmlns="http://www.w3.org/2000/svg" width="19.45" height="26.226" viewBox="0 0 19.45 26.226">
  <g id="Group_1" data-name="Group 1" transform="translate(6.017 0)">
    <path id="Path_16" data-name="Path 16" d="M187.184,4.859a8.94,8.94,0,0,0-3.321,3.416c-1.278,2.788,2.616,5.83,2.782,5.958a.215.215,0,0,0,.322-.269,12.369,12.369,0,0,1-1.36-4.69c.018-.678.968-1.448,1.973-2.263a11.4,11.4,0,0,0,2.574-2.581A4.147,4.147,0,0,0,189.989.09a.215.215,0,0,0-.385.17,4.574,4.574,0,0,1-.513,2.889A6.258,6.258,0,0,1,187.184,4.859Z" transform="translate(-183.606 0)" fill="#db380e"/>
    <path id="Path_17" data-name="Path 17" d="M255.953,106.454a.215.215,0,0,0-.206-.373c-.206.078-5.041,1.942-5.041,4.194a4.29,4.29,0,0,0,1.147,2.971,2.261,2.261,0,0,1,.408.611,3.063,3.063,0,0,1-.36,1.707.215.215,0,0,0,.315.272c.083-.058,2.032-1.436,1.682-3.1a4.094,4.094,0,0,0-.714-1.5c-.424-.63-.73-1.086-.266-1.926A16.352,16.352,0,0,1,255.953,106.454Z" transform="translate(-247.269 -100.635)" fill="#db380e"/>
  </g>
  <g id="Group_2" data-name="Group 2" transform="translate(0 13.816)">
    <path id="Path_18" data-name="Path 18" d="M106.633,277.693a.763.763,0,0,0,.113.712c.524.728,2.381,1.128,5.228,1.128h0c.386,0,.793-.008,1.21-.023,4.552-.163,6.241-1.581,6.311-1.641a.215.215,0,0,0-.2-.37,31.326,31.326,0,0,1-6.674.593,14.676,14.676,0,0,1-3.8-.291,5.325,5.325,0,0,1,2.2-.792.215.215,0,0,0-.041-.426C110.322,276.584,106.982,276.637,106.633,277.693Z" transform="translate(-104.519 -276.232)" fill="#73a1fb"/>
    <path id="Path_19" data-name="Path 19" d="M361.221,269.718a4.491,4.491,0,0,0-1.867.491.215.215,0,0,0,.1.4c.02,0,2,.016,2.182,1.149.159.977-1.876,2.561-2.674,3.089a.215.215,0,0,0,.163.39c.189-.041,4.631-1.019,4.161-3.605A2,2,0,0,0,361.221,269.718Z" transform="translate(-343.873 -269.718)" fill="#73a1fb"/>
    <path id="Path_20" data-name="Path 20" d="M152.811,337.316a.215.215,0,0,0-.088-.215l-1.065-.746a.216.216,0,0,0-.179-.032,20.956,20.956,0,0,1-2.742.475,19.023,19.023,0,0,1-2.079.11,7.6,7.6,0,0,1-2.827-.329c-.02-.039-.014-.057-.01-.067a.542.542,0,0,1,.274-.207.215.215,0,0,0-.125-.411c-1.068.258-1.591.618-1.553,1.071.068.8,1.929,1.216,3.5,1.325.226.016.471.023.727.023h0a30.549,30.549,0,0,0,6-.829A.214.214,0,0,0,152.811,337.316Z" transform="translate(-138.509 -332.499)" fill="#73a1fb"/>
    <path id="Path_21" data-name="Path 21" d="M158.638,390.1a.215.215,0,0,0-.123-.395c-.143,0-1.4.061-1.489.861a.833.833,0,0,0,.2.65c.452.535,1.671.853,3.726.972.243.015.49.022.734.022a11.2,11.2,0,0,0,4.447-.853.215.215,0,0,0,.02-.378l-1.346-.822a.217.217,0,0,0-.156-.027c-.009,0-.863.179-2.153.354a6.931,6.931,0,0,1-.908.05,11.269,11.269,0,0,1-3-.348A.086.086,0,0,1,158.638,390.1Z" transform="translate(-152.366 -383.562)" fill="#73a1fb"/>
    <path id="Path_22" data-name="Path 22" d="M74.249,428.826c5.986-.005,9.2-1.07,9.817-1.739a.741.741,0,0,0,.224-.608.939.939,0,0,0-.412-.605.217.217,0,0,0-.281.038.212.212,0,0,0,0,.28c.038.049.06.13-.051.24-.247.231-2.743.932-6.9,1.143-.569.03-1.166.045-1.774.045-3.72,0-6.442-.51-6.8-.806a5.3,5.3,0,0,1,2.125-.693.215.215,0,0,0-.066-.425c-.029,0-.127.01-.24.017-1.69.1-3.642.333-3.744,1.2a.886.886,0,0,0,.234.716c.456.513,1.768,1.194,7.866,1.194Z" transform="translate(-66.142 -417.704)" fill="#73a1fb"/>
    <path id="Path_23" data-name="Path 23" d="M154.421,456.209a.215.215,0,0,0-.248.049c-.009.009-.909.95-3.614,1.5a35.07,35.07,0,0,1-5.779.313c-2.8,0-5.472-.11-5.5-.111a.215.215,0,0,0-.059.424,32.009,32.009,0,0,0,6.648.662,30.985,30.985,0,0,0,5.3-.443c3.143-.551,3.363-2.109,3.371-2.176A.215.215,0,0,0,154.421,456.209Z" transform="translate(-135.322 -446.638)" fill="#73a1fb"/>
  </g>
</svg>
